<svg width="275" height="275" viewBox="0 0 275 275" fill="none" xmlns="http://www.w3.org/2000/svg">
<path d="M94.4258 86.1177H120.17M94.4258 163.35H180.239M94.4258 197.675H145.914" stroke="#CAD0D3" stroke-width="16.3802" stroke-linecap="round" stroke-linejoin="round"/>
<path d="M214.956 224.739C214.956 226.809 214.146 228.769 212.741 230.195C211.341 231.616 209.469 232.392 207.544 232.392H67.122C65.1968 232.392 63.3247 231.616 61.9247 230.195L56.1126 235.919L61.9247 230.195C60.5205 228.769 59.7096 226.809 59.7096 224.739V50.4719C59.7096 48.4023 60.5205 46.4423 61.9247 45.0164C63.3247 43.5948 65.1968 42.8195 67.122 42.8195H145.134H172.568C174.998 42.8195 177.303 43.8991 178.859 45.7664L184.047 41.4431L178.859 45.7664L209.262 82.2489C212.941 86.6645 214.956 92.2305 214.956 97.9783V224.739Z" stroke="#CAD0D3" stroke-width="16.3802" stroke-linecap="round" stroke-linejoin="round"/>
<path d="M163.078 51.7922L163.078 86.5089C163.078 91.0321 166.745 94.699 171.268 94.699H205.985" stroke="#CAD0D3" stroke-width="16.3802" stroke-linecap="round"/>
</svg>
